<?xml version="1.0" encoding="UTF-8" standalone="no"?>
<!-- Created with Inkscape (http://www.inkscape.org/) -->

<svg
   xmlns:dc="http://purl.org/dc/elements/1.1/"
   xmlns:cc="http://creativecommons.org/ns#"
   xmlns:rdf="http://www.w3.org/1999/02/22-rdf-syntax-ns#"
   xmlns:svg="http://www.w3.org/2000/svg"
   xmlns="http://www.w3.org/2000/svg"
   xmlns:sodipodi="http://sodipodi.sourceforge.net/DTD/sodipodi-0.dtd"
   xmlns:inkscape="http://www.inkscape.org/namespaces/inkscape"
   width="114.90558mm"
   height="29.764978mm"
   viewBox="0 0 114.90558 29.764979"
   version="1.1"
   id="svg8"
   inkscape:export-filename="/home/tlsa/bloodlight.png"
   inkscape:export-xdpi="474.9736"
   inkscape:export-ydpi="474.9736"
   inkscape:version="0.92.5 (2060ec1f9f, 2020-04-08)"
   sodipodi:docname="bloodlight.text.svg">
  <defs
     id="defs2" />
  <sodipodi:namedview
     id="base"
     pagecolor="#ffffff"
     bordercolor="#666666"
     borderopacity="1.0"
     inkscape:pageopacity="0.0"
     inkscape:pageshadow="2"
     inkscape:zoom="1.4"
     inkscape:cx="377.14203"
     inkscape:cy="-94.377769"
     inkscape:document-units="mm"
     inkscape:current-layer="layer1"
     showgrid="false"
     fit-margin-top="4"
     fit-margin-left="4"
     fit-margin-bottom="4"
     fit-margin-right="4"
     inkscape:window-width="1920"
     inkscape:window-height="1043"
     inkscape:window-x="1920"
     inkscape:window-y="0"
     inkscape:window-maximized="1" />
  <metadata
     id="metadata5">
    <rdf:RDF>
      <cc:Work
         rdf:about="">
        <dc:format>image/svg+xml</dc:format>
        <dc:type
           rdf:resource="http://purl.org/dc/dcmitype/StillImage" />
        <dc:title></dc:title>
      </cc:Work>
    </rdf:RDF>
  </metadata>
  <g
     inkscape:label="Layer 1"
     inkscape:groupmode="layer"
     id="layer1"
     transform="translate(-2.7199123,-266.4082)">
    <g
       id="g874">
      <path
         d="m 11.935379,288.13176 q -1.286933,0 -2.5738667,-0.0903 -1.2643555,-0.0677 -2.6416,-0.36125 v -15.17226 q 1.0837334,-0.2032 2.3706667,-0.29352 1.286933,-0.11288 2.393244,-0.11288 1.490134,0 2.731912,0.22577 1.264355,0.2032 2.167466,0.72249 0.903111,0.51929 1.399822,1.37725 0.519289,0.83537 0.519289,2.07715 0,1.87396 -1.806222,2.95769 1.490133,0.56445 2.032,1.53529 0.541867,0.97084 0.541867,2.19004 0,2.46098 -1.806222,3.70276 -1.783645,1.24178 -5.328356,1.24178 z m -1.783644,-7.02169 v 4.04142 q 0.383822,0.0452 0.835377,0.0677 0.451556,0.0226 0.993423,0.0226 1.580444,0 2.551288,-0.45155 0.970845,-0.45156 0.970845,-1.67076 0,-1.08373 -0.8128,-1.53529 -0.8128,-0.47413 -2.325511,-0.47413 z m 0,-2.68676 h 1.715911 q 1.6256,0 2.325511,-0.4064 0.699911,-0.42897 0.699911,-1.35466 0,-0.94827 -0.722489,-1.33209 -0.722489,-0.38382 -2.122311,-0.38382 -0.451556,0 -0.970845,0.0226 -0.519288,0 -0.925688,0.0452 z"
         style="font-style:normal;font-variant:normal;font-weight:bold;font-stretch:normal;font-size:22.57777786px;line-height:1.25;font-family:Ubuntu;-inkscape-font-specification:'Ubuntu Bold';letter-spacing:0px;word-spacing:0px;fill:#550000;fill-opacity:1;stroke:none;stroke-width:0.26458332"
         id="path833"
         inkscape:connector-curvature="0" />
      <path
         d="m 26.407712,288.15434 q -1.467556,-0.0226 -2.393244,-0.31609 -0.903112,-0.29351 -1.444978,-0.8128 -0.519289,-0.54187 -0.722489,-1.28694 -0.180622,-0.76764 -0.180622,-1.71591 v -13.07253 l 3.364089,-0.54187 v 12.93707 q 0,0.45156 0.06773,0.8128 0.06773,0.36124 0.248355,0.6096 0.2032,0.24836 0.564445,0.4064 0.361244,0.15804 0.970844,0.2032 z"
         style="font-style:normal;font-variant:normal;font-weight:bold;font-stretch:normal;font-size:22.57777786px;line-height:1.25;font-family:Ubuntu;-inkscape-font-specification:'Ubuntu Bold';letter-spacing:0px;word-spacing:0px;fill:#550000;fill-opacity:1;stroke:none;stroke-width:0.26458332"
         id="path835"
         inkscape:connector-curvature="0" />
      <path
         d="m 39.909223,281.96802 q 0,1.39983 -0.4064,2.57387 -0.4064,1.15147 -1.174044,1.98685 -0.767645,0.8128 -1.851378,1.26435 -1.061156,0.45156 -2.393245,0.45156 -1.309511,0 -2.393244,-0.45156 -1.061156,-0.45155 -1.8288,-1.26435 -0.767645,-0.83538 -1.196622,-1.98685 -0.428978,-1.17404 -0.428978,-2.57387 0,-1.39982 0.428978,-2.55128 0.451555,-1.15147 1.2192,-1.96427 0.790222,-0.8128 1.851377,-1.26436 1.083734,-0.45155 2.348089,-0.45155 1.286934,0 2.348089,0.45155 1.083734,0.45156 1.851378,1.26436 0.767645,0.8128 1.196622,1.96427 0.428978,1.15146 0.428978,2.55128 z m -3.431822,0 q 0,-1.55786 -0.632178,-2.4384 -0.6096,-0.90311 -1.761067,-0.90311 -1.151466,0 -1.783644,0.90311 -0.632178,0.88054 -0.632178,2.4384 0,1.55787 0.632178,2.48356 0.632178,0.90311 1.783644,0.90311 1.151467,0 1.761067,-0.90311 0.632178,-0.92569 0.632178,-2.48356 z"
         style="font-style:normal;font-variant:normal;font-weight:bold;font-stretch:normal;font-size:22.57777786px;line-height:1.25;font-family:Ubuntu;-inkscape-font-specification:'Ubuntu Bold';letter-spacing:0px;word-spacing:0px;fill:#550000;fill-opacity:1;stroke:none;stroke-width:0.26458332"
         id="path837"
         inkscape:connector-curvature="0" />
      <path
         d="m 53.613899,281.96802 q 0,1.39983 -0.4064,2.57387 -0.4064,1.15147 -1.174045,1.98685 -0.767644,0.8128 -1.851377,1.26435 -1.061156,0.45156 -2.393245,0.45156 -1.309511,0 -2.393244,-0.45156 -1.061156,-0.45155 -1.8288,-1.26435 -0.767645,-0.83538 -1.196623,-1.98685 -0.428977,-1.17404 -0.428977,-2.57387 0,-1.39982 0.428977,-2.55128 0.451556,-1.15147 1.2192,-1.96427 0.790223,-0.8128 1.851378,-1.26436 1.083733,-0.45155 2.348089,-0.45155 1.286933,0 2.348089,0.45155 1.083733,0.45156 1.851378,1.26436 0.767644,0.8128 1.196622,1.96427 0.428978,1.15146 0.428978,2.55128 z m -3.431822,0 q 0,-1.55786 -0.632178,-2.4384 -0.6096,-0.90311 -1.761067,-0.90311 -1.151467,0 -1.783644,0.90311 -0.632178,0.88054 -0.632178,2.4384 0,1.55787 0.632178,2.48356 0.632177,0.90311 1.783644,0.90311 1.151467,0 1.761067,-0.90311 0.632178,-0.92569 0.632178,-2.48356 z"
         style="font-style:normal;font-variant:normal;font-weight:bold;font-stretch:normal;font-size:22.57777786px;line-height:1.25;font-family:Ubuntu;-inkscape-font-specification:'Ubuntu Bold';letter-spacing:0px;word-spacing:0px;fill:#550000;fill-opacity:1;stroke:none;stroke-width:0.26458332"
         id="path839"
         inkscape:connector-curvature="0" />
      <path
         d="m 59.077684,281.90029 q 0,1.55787 0.699911,2.50614 0.699911,0.94826 2.077155,0.94826 0.451556,0 0.835378,-0.0226 0.383822,-0.0451 0.632178,-0.0903 v -6.11858 q -0.316089,-0.2032 -0.835378,-0.33866 -0.496711,-0.13547 -1.016,-0.13547 -2.393244,0 -2.393244,3.2512 z m 7.608711,5.64445 q -0.451556,0.13546 -1.038578,0.27093 -0.587022,0.11289 -1.241778,0.2032 -0.632178,0.0903 -1.309511,0.13547 -0.654756,0.0677 -1.264356,0.0677 -1.467555,0 -2.619022,-0.42898 -1.151466,-0.42898 -1.941689,-1.2192 -0.790222,-0.8128 -1.2192,-1.94169 -0.4064,-1.15146 -0.4064,-2.57386 0,-1.44498 0.361245,-2.59645 0.361244,-1.17404 1.038578,-1.98684 0.677333,-0.8128 1.648177,-1.24178 0.993423,-0.42898 2.257778,-0.42898 0.699911,0 1.241778,0.13547 0.564444,0.13546 1.128889,0.38382 v -5.37351 l 3.364089,-0.54187 z"
         style="font-style:normal;font-variant:normal;font-weight:bold;font-stretch:normal;font-size:22.57777786px;line-height:1.25;font-family:Ubuntu;-inkscape-font-specification:'Ubuntu Bold';letter-spacing:0px;word-spacing:0px;fill:#550000;fill-opacity:1;stroke:none;stroke-width:0.26458332"
         id="path841"
         inkscape:connector-curvature="0" />
      <path
         d="m 73.166179,288.13176 q -0.745067,-0.0226 -1.309511,-0.2032 -0.541867,-0.15805 -0.925689,-0.49671 -0.361244,-0.36125 -0.564444,-0.90311 -0.180623,-0.56445 -0.180623,-1.39983 v -14.44977 l 1.467556,-0.27094 v 14.67556 q 0,0.54187 0.09031,0.88053 0.112889,0.31609 0.316089,0.51929 0.2032,0.18062 0.519289,0.27093 0.338667,0.0903 0.790222,0.15805 z"
         style="font-style:normal;font-variant:normal;font-weight:300;font-stretch:normal;font-size:10.58333302px;line-height:1.25;font-family:Ubuntu;-inkscape-font-specification:'Ubuntu Light';letter-spacing:0px;word-spacing:0px;fill:#550000;fill-opacity:1;stroke:none;stroke-width:0.26458332"
         id="path843"
         inkscape:connector-curvature="0" />
      <path
         d="m 77.433362,287.92856 h -1.467555 v -11.67271 h 1.467555 z m 0.338667,-15.19485 q 0,0.51929 -0.316089,0.83538 -0.316089,0.29351 -0.767644,0.29351 -0.451556,0 -0.767645,-0.29351 -0.316089,-0.31609 -0.316089,-0.83538 0,-0.51929 0.316089,-0.8128 0.316089,-0.31609 0.767645,-0.31609 0.451555,0 0.767644,0.31609 0.316089,0.29351 0.316089,0.8128 z"
         style="font-style:normal;font-variant:normal;font-weight:300;font-stretch:normal;font-size:10.58333302px;line-height:1.25;font-family:Ubuntu;-inkscape-font-specification:'Ubuntu Light';letter-spacing:0px;word-spacing:0px;fill:#550000;fill-opacity:1;stroke:none;stroke-width:0.26458332"
         id="path845"
         inkscape:connector-curvature="0" />
      <path
         d="m 88.92544,286.57389 q -0.135467,0.11289 -0.4064,0.27094 -0.270934,0.13546 -0.677334,0.29351 -0.383822,0.15804 -0.903111,0.27093 -0.496711,0.0903 -1.128889,0.0903 -1.016,0 -1.964266,-0.31609 -0.948267,-0.31609 -1.670756,-0.99342 -0.699911,-0.67733 -1.128889,-1.73849 -0.428978,-1.08373 -0.428978,-2.61902 0,-1.24178 0.383823,-2.30294 0.383822,-1.06115 1.083733,-1.8288 0.722489,-0.79022 1.738489,-1.2192 1.038578,-0.45155 2.325511,-0.45155 1.6256,0 2.596444,0.22578 0.993423,0.2032 1.6256,0.4064 v 10.65671 q 0,2.61902 -1.354666,3.72533 -1.354667,1.12889 -4.086578,1.12889 -1.128889,0 -2.054578,-0.18062 -0.903111,-0.15805 -1.557867,-0.38382 l 0.293512,-1.33209 q 0.541866,0.24835 1.467555,0.42898 0.948267,0.18062 1.896533,0.18062 2.077156,0 3.002845,-0.8128 0.948267,-0.79022 0.948267,-2.73191 z m -0.02258,-8.89564 q -0.383822,-0.11289 -0.993422,-0.2032 -0.6096,-0.11289 -1.738489,-0.11289 -0.948267,0 -1.693334,0.33866 -0.722489,0.31609 -1.241777,0.92569 -0.519289,0.58703 -0.790223,1.4224 -0.270933,0.8128 -0.270933,1.80623 0,1.15146 0.316089,1.98684 0.316089,0.8128 0.8128,1.33209 0.519289,0.51929 1.174044,0.76764 0.654756,0.22578 1.332089,0.22578 0.993422,0 1.806222,-0.29351 0.835378,-0.29351 1.286934,-0.67733 z"
         style="font-style:normal;font-variant:normal;font-weight:300;font-stretch:normal;font-size:10.58333302px;line-height:1.25;font-family:Ubuntu;-inkscape-font-specification:'Ubuntu Light';letter-spacing:0px;word-spacing:0px;fill:#550000;fill-opacity:1;stroke:none;stroke-width:0.26458332"
         id="path847"
         inkscape:connector-curvature="0" />
      <path
         d="m 94.253794,287.92856 v -17.24942 l 1.467555,-0.27094 v 6.18631 q 0.722489,-0.27093 1.467556,-0.4064 0.745066,-0.15804 1.490133,-0.15804 1.354662,0 2.257782,0.38382 0.90311,0.38382 1.44497,1.10631 0.54187,0.69991 0.74507,1.69334 0.22578,0.99342 0.22578,2.19004 v 6.52498 h -1.46756 v -6.05085 q 0,-1.24177 -0.18062,-2.09973 -0.15804,-0.85796 -0.56444,-1.39982 -0.38383,-0.54187 -1.03858,-0.76765 -0.654757,-0.24835 -1.64818,-0.24835 -0.383822,0 -0.835378,0.0677 -0.428977,0.0677 -0.8128,0.15805 -0.383822,0.0677 -0.699911,0.15804 -0.293511,0.0903 -0.383822,0.13547 v 10.04711 z"
         style="font-style:normal;font-variant:normal;font-weight:300;font-stretch:normal;font-size:10.58333302px;line-height:1.25;font-family:Ubuntu;-inkscape-font-specification:'Ubuntu Light';letter-spacing:0px;word-spacing:0px;fill:#550000;fill-opacity:1;stroke:none;stroke-width:0.26458332"
         id="path849"
         inkscape:connector-curvature="0" />
      <path
         d="m 108.47776,276.25585 h 4.65102 v 1.24177 h -4.65102 v 6.20889 q 0,0.99343 0.15804,1.6256 0.18062,0.6096 0.49671,0.94827 0.31609,0.33867 0.76765,0.45156 0.45155,0.11289 0.99342,0.11289 0.92569,0 1.49013,-0.2032 0.56445,-0.22578 0.88053,-0.4064 l 0.36125,1.2192 q -0.31609,0.2032 -1.10631,0.47413 -0.79022,0.24835 -1.71591,0.24835 -1.08374,0 -1.8288,-0.27093 -0.72249,-0.29351 -1.17405,-0.85795 -0.42898,-0.58703 -0.6096,-1.44498 -0.18062,-0.85796 -0.18062,-2.032 v -10.74703 l 1.46756,-0.27093 z"
         style="font-style:normal;font-variant:normal;font-weight:300;font-stretch:normal;font-size:10.58333302px;line-height:1.25;font-family:Ubuntu;-inkscape-font-specification:'Ubuntu Light';letter-spacing:0px;word-spacing:0px;fill:#550000;fill-opacity:1;stroke:none;stroke-width:0.26458332"
         id="path851"
         inkscape:connector-curvature="0" />
    </g>
  </g>
</svg>
